<?xml version="1.0" encoding="utf-8"?>
<!-- Generator: Adobe Illustrator 28.1.0, SVG Export Plug-In . SVG Version: 6.00 Build 0)  -->
<svg version="1.1" id="Layer_1" xmlns="http://www.w3.org/2000/svg" xmlns:xlink="http://www.w3.org/1999/xlink" x="0px" y="0px"
	 viewBox="0 0 512 512" style="enable-background:new 0 0 512 512;" xml:space="preserve">
<style type="text/css">
	.st0{opacity:0.4;fill:#57DD64;enable-background:new    ;}
	.st1{fill:#32B73B;}
</style>
<path class="st0" d="M256,8C119,8,8,119,8,256s111,248,248,248s248-111,248-248S393,8,256,8z M411.3,203.3l-184,184
	c-6.2,6.2-16.4,6.2-22.6,0l-104-104c-6.2-6.2-6.2-16.4,0-22.6l22.6-22.6c6.2-6.2,16.4-6.3,22.6,0c0,0,0,0,0,0l70.1,70.1l150.1-150.1
	c6.2-6.2,16.4-6.3,22.6,0c0,0,0,0,0,0l22.6,22.6C417.6,186.9,417.6,197.1,411.3,203.3z"/>
<path class="st1" d="M227.3,387.3c-6.2,6.2-16.4,6.2-22.6,0l-104-104c-6.2-6.2-6.2-16.4,0-22.6l22.6-22.6c6.2-6.2,16.4-6.3,22.6,0
	c0,0,0,0,0,0l70.1,70.1l150.1-150.1c6.2-6.2,16.4-6.3,22.6,0c0,0,0,0,0,0l22.6,22.6c6.2,6.2,6.2,16.4,0,22.6L227.3,387.3z"/>
</svg>
